<svg width="22" height="22" viewBox="0 0 24 24" fill="none" xmlns="http://www.w3.org/2000/svg">
  <circle cx="12" cy="12" r="10.5" stroke="black" stroke-width="1.8"/>
  <path d="M12 1.5C12 1.5 17.5 6 17.5 12C17.5 18 12 22.5 12 22.5" stroke="black" stroke-width="1.8" stroke-linecap="round"/>
  <path d="M12 1.5C12 1.5 6.5 6 6.5 12C6.5 18 12 22.5 12 22.5" stroke="black" stroke-width="1.8" stroke-linecap="round"/>
  <path d="M1.5 12C1.5 12 6 7.5 12 7.5C18 7.5 22.5 12 22.5 12" stroke="black" stroke-width="1.8" stroke-linecap="round"/>
  <path d="M1.5 12C1.5 12 6 16.5 12 16.5C18 16.5 22.5 12 22.5 12" stroke="black" stroke-width="1.8" stroke-linecap="round"/>
</svg>
